<?xml version="1.0" encoding="UTF-8"?>
<svg id="Layer_2" data-name="Layer 2" xmlns="http://www.w3.org/2000/svg" viewBox="0 0 218.6 104.38">
  <defs>
    <style>
      .cls-1 {
        fill: #0081c0;
      }

      .cls-2 {
        fill: #003970;
      }
    </style>
  </defs>
  <g id="Layer_1-2" data-name="Layer 1">
    <g>
      <path class="cls-2" d="M29.89,26.61c5.67,0,10.43.71,14.31,2.13,3.87,1.42,6.96,3.4,9.28,5.95,2.31,2.55,3.96,5.64,4.96,9.28.99,3.64,1.49,7.63,1.49,11.97v44.9c-2.64.57-6.63,1.25-11.97,2.05-5.34.8-11.36,1.2-18.06,1.2-4.44,0-8.5-.43-12.18-1.27s-6.83-2.22-9.42-4.11c-2.6-1.89-4.63-4.34-6.09-7.37-1.46-3.02-2.2-6.75-2.2-11.19s.82-7.84,2.48-10.77c1.65-2.93,3.89-5.31,6.73-7.15,2.83-1.84,6.11-3.16,9.84-3.97,3.73-.8,7.63-1.2,11.69-1.2,1.89,0,3.87.12,5.95.36,2.08.24,4.3.64,6.66,1.2v-2.83c0-1.98-.24-3.87-.71-5.67-.48-1.79-1.3-3.38-2.48-4.75-1.18-1.37-2.74-2.43-4.67-3.19-1.94-.75-4.37-1.13-7.3-1.13-3.97,0-7.6.28-10.91.85-3.31.57-6,1.23-8.07,1.98l-2.13-13.88c2.17-.75,5.34-1.51,9.49-2.27,4.15-.76,8.59-1.13,13.31-1.13ZM31.3,90.5c5.29,0,9.3-.28,12.04-.85v-18.98c-.94-.28-2.32-.57-4.11-.85-1.8-.28-3.78-.42-5.95-.42-1.89,0-3.8.14-5.74.42-1.94.28-3.68.8-5.24,1.56-1.56.76-2.81,1.82-3.75,3.19-.95,1.37-1.42,3.09-1.42,5.17,0,4.06,1.27,6.87,3.82,8.43s6,2.34,10.34,2.34Z"/>
      <g>
        <path class="cls-2" d="M103,22.67V6.07l-17.14,2.83v11.09c4.16,1.73,9.09,2.6,15.41,2.69.57,0,1.15-.01,1.73-.02Z"/>
        <path class="cls-2" d="M123.76,88.51c-2.41.66-5.17.99-8.29.99-4.53,0-7.74-1.27-9.63-3.82-1.89-2.55-2.83-6.8-2.83-12.75v-25.76c-2.35.21-4.68.34-6.98.34-1.17,0-2.33-.03-3.49-.08-2.38-.13-4.57-.43-6.67-.81v26.45c0,4.91.43,9.28,1.28,13.1.85,3.82,2.31,7.08,4.39,9.77,2.08,2.69,4.89,4.74,8.43,6.16,3.54,1.42,7.96,2.13,13.25,2.13,4.34,0,8.12-.45,11.33-1.35,3.21-.9,5.81-1.77,7.79-2.62l-2.83-13.6c-1.42.57-3.33,1.18-5.74,1.84Z"/>
        <path class="cls-1" d="M70.76,9.95c1.84,5.93,6.72,10.58,12.34,13.21,5.62,2.63,11.93,3.44,18.13,3.52,12.81.18,25.5-2.57,37.76-6.29,17.33-5.26,34.02-12.47,50.3-20.41-20.77,15.58-43.25,31.48-68.24,39.4-9.17,2.91-18.69,4.48-28.32,4.02-5.59-.31-11.23-1.38-16.15-4.05-4.92-2.67-9.06-7.08-10.55-12.47-1.64-5.94.25-12.72,4.73-16.94Z"/>
      </g>
      <path class="cls-2" d="M188.14,43.89c-1.42-.47-3.38-.97-5.88-1.49-2.5-.52-5.41-.78-8.71-.78-1.89,0-3.89.19-6.02.57-2.12.38-3.61.71-4.46.99v59.35h-17.14V32c3.3-1.23,7.44-2.38,12.4-3.47,4.96-1.08,10.46-1.63,16.5-1.63,1.14,0,2.46.07,3.97.21,1.51.14,3.02.33,4.53.57,1.51.24,2.97.52,4.39.85,1.42.33,2.55.64,3.4.92l-2.98,14.45Z"/>
      <path class="cls-2" d="M218.6,93.19c0,3.31-1.11,6-3.33,8.07-2.22,2.08-4.89,3.12-8,3.12s-5.9-1.04-8.07-3.12c-2.17-2.08-3.26-4.77-3.26-8.07s1.09-6.02,3.26-8.14c2.17-2.12,4.86-3.19,8.07-3.19s5.78,1.06,8,3.19c2.22,2.12,3.33,4.84,3.33,8.14Z"/>
    </g>
  </g>
</svg>