<?xml version="1.0" encoding="UTF-8"?>
<svg id="Layer_2" data-name="Layer 2" xmlns="http://www.w3.org/2000/svg" viewBox="0 0 387 47.55">
  <defs>
    <style>
      .cls-1 {
        fill: #fff;
      }

      .cls-2 {
        fill: #fff;
      }
    </style>
  </defs>
  <g id="Layer_1-2" data-name="Layer 1">
    <g>
      <path class="cls-2" d="M12.7,14.44c2.41,0,4.43.3,6.08.9,1.64.6,2.96,1.44,3.94,2.53.98,1.08,1.68,2.4,2.11,3.94.42,1.55.63,3.24.63,5.09v19.08c-1.12.24-2.82.53-5.09.87-2.27.34-4.83.51-7.67.51-1.89,0-3.61-.18-5.18-.54-1.56-.36-2.9-.94-4-1.75-1.1-.8-1.97-1.84-2.59-3.13-.62-1.28-.93-2.87-.93-4.75s.35-3.33,1.05-4.57c.7-1.24,1.65-2.26,2.86-3.04,1.2-.78,2.6-1.34,4.18-1.69,1.58-.34,3.24-.51,4.97-.51.8,0,1.64.05,2.53.15.88.1,1.83.27,2.83.51v-1.2c0-.84-.1-1.64-.3-2.41-.2-.76-.55-1.43-1.05-2.02-.5-.58-1.16-1.03-1.99-1.35-.82-.32-1.86-.48-3.1-.48-1.69,0-3.23.12-4.63.36-1.41.24-2.55.52-3.43.84l-.9-5.9c.92-.32,2.27-.64,4.03-.96,1.76-.32,3.65-.48,5.66-.48ZM13.3,41.59c2.25,0,3.95-.12,5.12-.36v-8.06c-.4-.12-.98-.24-1.75-.36-.76-.12-1.6-.18-2.53-.18-.8,0-1.62.06-2.44.18-.82.12-1.56.34-2.23.66-.66.32-1.19.77-1.59,1.35-.4.58-.6,1.31-.6,2.2,0,1.73.54,2.92,1.62,3.58,1.08.66,2.55.99,4.39.99Z"/>
      <path class="cls-2" d="M62.71,31c0,2.53-.37,4.81-1.11,6.83-.74,2.03-1.81,3.76-3.19,5.21-1.39,1.44-3.06,2.55-5.03,3.31-1.97.76-4.19,1.14-6.68,1.14s-4.71-.18-6.89-.54c-2.19-.36-4-.76-5.45-1.2V1.2l7.28-1.2v16.31c.84-.44,1.88-.84,3.1-1.2,1.22-.36,2.58-.54,4.06-.54,2.21,0,4.18.39,5.93,1.17s3.2,1.9,4.36,3.34c1.16,1.44,2.05,3.18,2.68,5.21.62,2.03.93,4.26.93,6.71ZM55.25,30.88c0-3.09-.61-5.54-1.84-7.34-1.22-1.81-3.16-2.71-5.81-2.71-1.2,0-2.34.18-3.4.54s-1.92.76-2.56,1.2v18.12c.52.12,1.19.23,2.02.33.82.1,1.82.15,2.98.15,2.69,0,4.8-.91,6.32-2.74,1.52-1.83,2.29-4.34,2.29-7.55Z"/>
      <path class="cls-2" d="M98.71,30.94c0,2.49-.36,4.75-1.08,6.8-.72,2.05-1.75,3.79-3.07,5.24-1.32,1.44-2.92,2.57-4.79,3.37-1.87.8-3.92,1.2-6.17,1.2s-4.29-.4-6.14-1.2c-1.85-.8-3.43-1.93-4.76-3.37-1.32-1.44-2.36-3.19-3.1-5.24-.74-2.05-1.11-4.31-1.11-6.8s.37-4.74,1.11-6.77c.74-2.03,1.79-3.76,3.13-5.21,1.34-1.44,2.94-2.56,4.79-3.34,1.85-.78,3.87-1.17,6.08-1.17s4.24.39,6.11,1.17c1.87.78,3.46,1.9,4.79,3.34,1.32,1.44,2.36,3.18,3.1,5.21.74,2.03,1.11,4.28,1.11,6.77ZM91.24,30.94c0-3.13-.67-5.61-2.02-7.43-1.35-1.83-3.22-2.74-5.63-2.74s-4.28.91-5.63,2.74c-1.35,1.83-2.02,4.3-2.02,7.43s.67,5.68,2.02,7.52c1.34,1.85,3.22,2.77,5.63,2.77s4.28-.92,5.63-2.77c1.34-1.84,2.02-4.35,2.02-7.52Z"/>
      <path class="cls-2" d="M132.05,45.74c-1.41.36-3.23.73-5.48,1.11-2.25.38-4.72.57-7.4.57-2.53,0-4.64-.36-6.35-1.08-1.71-.72-3.07-1.73-4.09-3.01-1.02-1.28-1.76-2.82-2.2-4.6-.44-1.78-.66-3.74-.66-5.87V15.23h7.28v16.49c0,3.37.49,5.78,1.48,7.22.98,1.44,2.7,2.17,5.15,2.17.88,0,1.82-.04,2.8-.12.98-.08,1.72-.18,2.2-.3V15.23h7.28v30.51Z"/>
      <g>
        <path class="cls-2" d="M148.24,12.77v-7.05l-7.28,1.2v4.71c1.77.74,3.86,1.1,6.55,1.14.24,0,.49,0,.73,0Z"/>
        <path class="cls-2" d="M157.06,40.75c-1.02.28-2.2.42-3.52.42-1.93,0-3.29-.54-4.09-1.63-.8-1.08-1.2-2.89-1.2-5.42v-10.95c-1,.09-1.99.14-2.97.14-.5,0-.99-.01-1.48-.04-1.01-.06-1.94-.18-2.83-.34v11.24c0,2.09.18,3.94.54,5.57.36,1.63.98,3.01,1.87,4.15.88,1.14,2.08,2.02,3.58,2.62,1.5.6,3.38.9,5.63.9,1.85,0,3.45-.19,4.82-.57,1.36-.38,2.47-.75,3.31-1.11l-1.2-5.78c-.6.24-1.41.5-2.44.78Z"/>
        <path class="cls-1" d="M134.54,7.37c.78,2.52,2.85,4.5,5.24,5.61s5.07,1.46,7.7,1.5c5.44.07,10.84-1.09,16.05-2.67,7.36-2.23,14.45-5.3,21.37-8.67-8.82,6.62-18.38,13.37-28.99,16.74-3.9,1.24-7.94,1.9-12.03,1.71-2.37-.13-4.77-.59-6.86-1.72-2.09-1.13-3.85-3.01-4.48-5.3-.7-2.52.11-5.4,2.01-7.2Z"/>
      </g>
      <path class="cls-1" d="M184.41,21.79c-.6-.2-1.43-.41-2.5-.63-1.06-.22-2.3-.33-3.7-.33-.8,0-1.65.08-2.56.24-.9.16-1.53.3-1.9.42v25.22h-7.28v-29.97c1.4-.52,3.16-1.01,5.27-1.47,2.11-.46,4.44-.69,7.01-.69.48,0,1.04.03,1.69.09.64.06,1.28.14,1.93.24.64.1,1.26.22,1.87.36.6.14,1.08.27,1.44.39l-1.26,6.14Z"/>
      <path class="cls-1" d="M201.2,14.44c2.41,0,4.43.3,6.08.9,1.64.6,2.96,1.44,3.94,2.53.98,1.08,1.68,2.4,2.11,3.94.42,1.55.63,3.24.63,5.09v19.08c-1.12.24-2.82.53-5.09.87-2.27.34-4.83.51-7.67.51-1.89,0-3.61-.18-5.18-.54-1.56-.36-2.9-.94-4-1.75-1.1-.8-1.97-1.84-2.59-3.13-.62-1.28-.93-2.87-.93-4.75s.35-3.33,1.05-4.57c.7-1.24,1.65-2.26,2.86-3.04,1.2-.78,2.6-1.34,4.18-1.69,1.58-.34,3.24-.51,4.97-.51.8,0,1.64.05,2.53.15.88.1,1.83.27,2.83.51v-1.2c0-.84-.1-1.64-.3-2.41-.2-.76-.55-1.43-1.05-2.02-.5-.58-1.16-1.03-1.99-1.35-.82-.32-1.86-.48-3.1-.48-1.69,0-3.23.12-4.63.36-1.41.24-2.55.52-3.43.84l-.9-5.9c.92-.32,2.27-.64,4.03-.96,1.76-.32,3.65-.48,5.66-.48ZM201.81,41.59c2.25,0,3.95-.12,5.12-.36v-8.06c-.4-.12-.98-.24-1.75-.36-.76-.12-1.6-.18-2.53-.18-.8,0-1.62.06-2.44.18-.82.12-1.56.34-2.23.66-.66.32-1.19.77-1.59,1.35-.4.58-.6,1.31-.6,2.2,0,1.73.54,2.92,1.62,3.58,1.08.66,2.55.99,4.39.99Z"/>
      <path class="cls-1" d="M230.2,46.7c-2.01-4.13-4.08-8.88-6.19-14.23-2.12-5.36-4.04-11.1-5.77-17.24h7.77c.44,1.77.96,3.66,1.54,5.69.58,2.03,1.21,4.05,1.87,6.08.66,2.03,1.35,3.99,2.05,5.9.71,1.91,1.36,3.62,1.96,5.15.6-1.52,1.25-3.24,1.93-5.15.68-1.91,1.36-3.87,2.02-5.9.66-2.03,1.3-4.05,1.9-6.08.6-2.03,1.13-3.92,1.57-5.69h7.53c-1.73,6.14-3.66,11.89-5.77,17.24-2.12,5.36-4.18,10.1-6.19,14.23h-6.23Z"/>
      <path class="cls-1" d="M251.28,31.12c0-2.77.41-5.2,1.23-7.28.82-2.09,1.92-3.82,3.28-5.21,1.36-1.38,2.93-2.43,4.7-3.13,1.76-.7,3.57-1.05,5.42-1.05,4.33,0,7.71,1.35,10.14,4.03,2.43,2.69,3.64,6.7,3.64,12.04,0,.4-.01.85-.03,1.35-.02.5-.05.95-.09,1.35h-20.76c.2,2.53,1.09,4.48,2.68,5.87,1.58,1.38,3.88,2.08,6.89,2.08,1.77,0,3.38-.16,4.85-.48,1.47-.32,2.62-.66,3.46-1.02l.96,5.96c-.4.2-.95.41-1.65.63-.7.22-1.5.42-2.41.6-.9.18-1.88.33-2.92.45-1.04.12-2.11.18-3.19.18-2.77,0-5.18-.41-7.22-1.23-2.05-.82-3.73-1.97-5.06-3.43-1.32-1.46-2.31-3.19-2.95-5.18s-.96-4.16-.96-6.53ZM272.4,27.87c0-1-.14-1.96-.42-2.86-.28-.9-.69-1.69-1.23-2.35-.54-.66-1.2-1.18-1.99-1.56-.78-.38-1.72-.57-2.8-.57s-2.11.21-2.95.63-1.55.97-2.14,1.66c-.58.68-1.03,1.47-1.35,2.35-.32.88-.54,1.79-.66,2.71h13.54Z"/>
      <path class="cls-1" d="M298.34,47.31c-2.17-.04-3.96-.28-5.39-.72-1.42-.44-2.56-1.07-3.4-1.9-.84-.82-1.44-1.85-1.78-3.07-.34-1.22-.51-2.62-.51-4.18V1.2l7.28-1.2v36.05c0,.88.07,1.62.21,2.23.14.6.39,1.11.75,1.53.36.42.85.74,1.47.96.62.22,1.41.39,2.38.51l-1.02,6.02Z"/>
      <path class="cls-1" d="M316.22,47.31c-2.17-.04-3.96-.28-5.39-.72-1.43-.44-2.56-1.07-3.4-1.9-.84-.82-1.43-1.85-1.78-3.07-.34-1.22-.51-2.62-.51-4.18V1.2l7.28-1.2v36.05c0,.88.07,1.62.21,2.23.14.6.39,1.11.75,1.53.36.42.85.74,1.47.96.62.22,1.42.39,2.38.51l-1.02,6.02Z"/>
      <path class="cls-1" d="M321.4,31.12c0-2.77.41-5.2,1.23-7.28.82-2.09,1.92-3.82,3.28-5.21,1.36-1.38,2.93-2.43,4.7-3.13,1.76-.7,3.57-1.05,5.42-1.05,4.33,0,7.71,1.35,10.14,4.03,2.43,2.69,3.64,6.7,3.64,12.04,0,.4-.01.85-.03,1.35-.02.5-.05.95-.09,1.35h-20.76c.2,2.53,1.09,4.48,2.68,5.87,1.58,1.38,3.88,2.08,6.89,2.08,1.77,0,3.38-.16,4.85-.48,1.46-.32,2.62-.66,3.46-1.02l.96,5.96c-.4.2-.95.41-1.65.63-.7.22-1.5.42-2.41.6-.9.18-1.88.33-2.92.45-1.04.12-2.11.18-3.19.18-2.77,0-5.18-.41-7.22-1.23-2.05-.82-3.73-1.97-5.06-3.43-1.32-1.46-2.31-3.19-2.95-5.18s-.96-4.16-.96-6.53ZM342.52,27.87c0-1-.14-1.96-.42-2.86-.28-.9-.69-1.69-1.23-2.35-.54-.66-1.2-1.18-1.99-1.56-.78-.38-1.72-.57-2.8-.57s-2.11.21-2.95.63c-.84.42-1.55.97-2.14,1.66-.58.68-1.03,1.47-1.35,2.35-.32.88-.54,1.79-.66,2.71h13.54Z"/>
      <path class="cls-1" d="M375.44,21.79c-.6-.2-1.43-.41-2.5-.63-1.06-.22-2.3-.33-3.7-.33-.8,0-1.65.08-2.56.24-.9.16-1.53.3-1.9.42v25.22h-7.28v-29.97c1.4-.52,3.16-1.01,5.27-1.47,2.11-.46,4.44-.69,7.01-.69.48,0,1.04.03,1.69.09.64.06,1.28.14,1.93.24.64.1,1.26.22,1.87.36.6.14,1.08.27,1.44.39l-1.26,6.14Z"/>
      <path class="cls-2" d="M387,42.73c0,1.41-.47,2.55-1.41,3.43-.94.88-2.08,1.32-3.4,1.32s-2.51-.44-3.43-1.32c-.92-.88-1.39-2.03-1.39-3.43s.46-2.56,1.39-3.46c.92-.9,2.07-1.35,3.43-1.35s2.46.45,3.4,1.35c.94.9,1.41,2.06,1.41,3.46Z"/>
    </g>
  </g>
</svg>